<svg width="40" height="40" viewBox="0 0 50 50" fill="none" xmlns="http://www.w3.org/2000/svg">
<g clip-path="url(#clip0_422_1662)">
<path d="M48.8246 17.4227C48.0434 15.0008 46.8715 12.6571 45.3871 10.5477C37.4184 -0.702286 21.7934 -3.35854 10.5434 4.61021C8.74652 5.86021 7.1059 7.34459 5.69965 9.06334C-1.09723 17.2665 -1.9566 28.829 3.59027 37.9696C4.44965 39.3758 5.38715 40.6258 6.4809 41.8758C6.4809 41.954 6.55902 42.0321 6.63715 42.1102L6.7934 42.2665C6.87152 42.3446 6.94965 42.4227 7.02777 42.4227C9.21527 44.6883 11.7934 46.5633 14.684 47.8915C19.5278 50.0008 24.9184 50.6258 30.0746 49.5321C34.9965 48.5165 39.5278 46.0165 43.0434 42.3446C43.1215 42.2665 43.1996 42.2665 43.2778 42.1883C43.2778 42.1102 43.3559 42.1102 43.3559 42.0321C43.434 41.954 43.5121 41.8758 43.5121 41.7977C46.7934 38.204 48.9809 33.6727 49.684 28.9071C49.9184 27.579 49.9965 26.329 49.9965 25.0008C49.9965 22.4227 49.6059 19.8446 48.8246 17.4227ZM41.7934 41.329C39.3715 43.829 36.4028 45.7821 33.1215 47.0321C28.434 48.7508 23.3559 48.9071 18.5903 47.579C16.2465 46.954 14.059 45.9383 12.1059 44.6102C10.6996 43.6727 9.37152 42.579 8.19965 41.4071L8.27777 41.329L8.43402 41.1727C8.43402 41.1727 8.43402 41.0946 8.51215 41.0946L8.59027 41.0165C8.74652 40.8602 8.90277 40.6258 9.05902 40.4696C9.52777 40.0008 9.9184 39.6102 10.4653 39.1415L10.8559 38.829H10.934L11.2465 38.5946C11.6371 38.3602 11.9496 38.0477 12.3403 37.8133C14.3715 36.5633 16.559 35.4696 18.8246 34.6883C19.3715 34.5321 19.8403 34.2196 20.2309 33.829C20.8559 33.2821 21.2465 32.5008 21.3246 31.6415C21.4028 30.3915 20.5434 29.454 19.9184 28.4383C19.2934 27.5008 18.6684 26.4852 18.1996 25.4696C17.6528 24.3758 17.2621 23.204 16.8715 22.1102C16.4809 20.9383 16.2465 19.6883 16.2465 18.4383V17.2665C16.3246 16.7977 16.4028 16.329 16.559 15.8602C16.6371 15.6258 16.7153 15.3133 16.7934 15.079L16.9496 14.6883L17.0278 14.454C17.2621 13.829 17.5746 13.2821 17.9653 12.8133L18.1215 12.6571C18.1996 12.5008 18.3559 12.4227 18.434 12.2665C18.6684 11.954 18.9028 11.7196 19.2153 11.4852L19.3715 11.329L19.4496 11.2508L19.9184 10.9383C20.2309 10.704 20.5434 10.5477 20.934 10.3915H21.0121L21.1684 10.3133L21.4809 10.2352L22.1059 10.0008C22.3403 9.92271 22.4965 9.92271 22.7309 9.84459L23.1215 9.76646H23.3559C24.3715 9.61021 25.3871 9.61021 26.4809 9.76646H27.0278L27.3403 9.84459C27.5746 9.92271 27.809 9.92271 28.0434 10.0008C28.2778 10.079 28.434 10.1571 28.6684 10.1571L28.9809 10.2352L29.1371 10.3133H29.2153C29.6059 10.4696 29.9184 10.6258 30.2309 10.8602L30.6996 11.1727L30.8559 11.329C30.934 11.329 30.934 11.4071 31.0121 11.4852C31.2465 11.7196 31.559 11.954 31.7934 12.2665C31.8715 12.4227 32.0278 12.5008 32.1059 12.6571L32.184 12.7352L32.2621 12.8915C32.6528 13.3602 32.9653 13.9071 33.1996 14.5321L33.2778 14.6883L33.3559 14.7665C33.434 14.9227 33.434 15.079 33.5121 15.1571C33.5903 15.3915 33.6684 15.704 33.7465 15.9383C33.9028 16.4071 33.9809 16.7977 34.059 17.2665V18.0477C34.1371 19.454 33.9028 20.8602 33.434 22.2665C32.809 23.4383 32.4965 24.5321 32.0278 25.6258C31.559 26.7196 30.934 27.7352 30.2309 28.6727C29.5278 29.6102 28.8246 30.5477 28.9028 31.7977C28.9809 32.579 29.3715 33.3602 29.9184 33.9071C30.3871 34.2977 30.8559 34.5321 31.4028 34.7665C32.6528 35.2352 33.8246 35.7821 35.0746 36.329C36.0121 36.7977 36.9496 37.3446 37.8871 37.8915C38.2778 38.1258 38.6684 38.3602 38.9809 38.6727L39.2153 38.829L39.2934 38.9071L39.7621 39.2977C40.2309 39.6883 40.6996 40.079 41.0903 40.5477C41.2465 40.704 41.4028 40.9383 41.559 41.0946L41.6371 41.1727L41.7934 41.329ZM44.1371 38.5946C43.7465 39.1415 43.3559 39.6883 42.8871 40.2352C42.6528 39.9227 42.4184 39.6883 42.184 39.454C41.1684 38.3602 39.9965 37.4227 38.6684 36.5633C36.559 35.2352 34.3715 34.1415 32.0278 33.3602L31.559 33.1258L31.3246 33.0477H31.2465L31.0903 32.9696L30.934 32.8133L30.7778 32.6571C30.7778 32.6571 30.7778 32.579 30.6996 32.579C30.6215 32.5008 30.5434 32.3446 30.4653 32.2665C30.4653 32.2665 30.309 32.0321 30.309 31.954V31.4071C30.3871 30.9383 30.6215 30.4696 30.934 30.079C31.4028 29.454 31.7934 28.9071 32.184 28.204C32.7309 27.2665 33.1996 26.329 33.6684 25.3133C34.684 23.1258 35.2309 20.8602 35.309 18.4383C35.309 16.7196 34.8403 15.0008 34.059 13.4383C33.434 12.1102 32.4965 10.9383 31.3246 10.079C29.8403 8.98521 28.0434 8.36021 26.2465 8.12584C24.2153 7.81334 22.184 8.12584 20.309 8.82896C18.8246 9.45396 17.5746 10.3915 16.559 11.6415C15.2309 13.5165 14.5278 15.6258 14.3715 17.8915C14.2934 19.1415 14.4496 20.3915 14.7621 21.5633C15.3871 23.9071 16.2465 26.1727 17.4965 28.204C17.8871 28.829 18.2778 29.3758 18.7465 30.0008C19.059 30.3915 19.2934 30.8602 19.3715 31.329C19.3715 31.329 19.3715 31.4852 19.3715 31.5633C19.3715 31.6415 19.3715 31.7977 19.3715 31.7977C19.3715 31.8758 19.3715 31.954 19.2934 31.954V32.0321L19.059 32.3446L18.9809 32.4227L18.8246 32.579L18.6684 32.7352L18.7465 33.0477H18.6684C18.6684 33.0477 18.434 33.1258 18.3559 33.1258L17.7309 33.3602C16.4809 33.829 15.1528 34.3758 13.9809 35.0008C12.2621 35.8602 10.6215 36.8758 9.13715 38.1258C8.43402 38.7508 7.7309 39.3758 7.18402 40.1571L6.94965 39.8446C6.1684 38.9852 5.46527 38.0477 4.84027 37.0321C4.52777 36.4852 4.21527 36.0165 3.9809 35.4696C3.6684 34.9227 3.43402 34.3758 3.27777 33.9071C2.34027 31.6415 1.7934 29.2977 1.63715 26.8758C1.24652 21.954 2.4184 17.0321 4.99652 12.8133C7.49652 8.75084 11.0903 5.54771 15.4653 3.59459C27.2621 -1.71791 41.2465 3.51647 46.559 15.3915C47.4184 17.3446 48.0434 19.3758 48.3559 21.4852C48.5121 22.6571 48.5903 23.829 48.5903 25.079C48.5121 29.9227 46.9496 34.6102 44.1371 38.5946Z" />
<path d="M41.7969 41.2499C39.375 43.8281 36.4063 45.7812 33.125 47.0312C28.4375 48.7499 23.3594 48.9062 18.5937 47.5781C16.25 46.9531 14.0625 45.9374 12.1094 44.6093C10.7031 43.6718 9.375 42.5781 8.20312 41.4062L8.28125 41.3281L8.4375 41.1718C8.4375 41.1718 8.4375 41.0937 8.51562 41.0937L8.59375 41.0156C8.75 40.8593 8.90625 40.6249 9.0625 40.4687C9.53125 39.9999 9.92187 39.6093 10.4687 39.1406L10.8594 38.8281H10.9375L11.25 38.5937C11.6406 38.3593 11.9531 38.0468 12.3438 37.8124C14.375 36.5624 16.5625 35.4687 18.8281 34.6874C19.375 34.5312 19.8438 34.2187 20.2344 33.8281C20.8594 33.2812 21.25 32.4999 21.3281 31.6406C21.4062 30.3906 20.5469 29.4531 19.9219 28.4374C19.2969 27.4999 18.6719 26.4843 18.2031 25.4687C17.6562 24.3749 17.2656 23.2031 16.875 22.1093C16.4844 20.9374 16.25 19.6874 16.25 18.4374V17.2656C16.3281 16.7968 16.4063 16.3281 16.5625 15.8593C16.6406 15.6249 16.7188 15.3124 16.7969 15.0781L16.9531 14.6874L17.0312 14.4531C17.2656 13.8281 17.5781 13.2812 17.9688 12.8124L18.125 12.6562C18.2031 12.4999 18.3594 12.4218 18.4375 12.2656C18.6719 11.9531 18.9062 11.7187 19.2188 11.4843L19.375 11.3281L19.4531 11.2499L19.9219 10.9374C20.2344 10.7031 20.5469 10.5468 20.9375 10.3906H21.0156L21.1719 10.3124L21.4844 10.2343L22.1094 9.99994C22.3437 9.92181 22.5 9.92181 22.7344 9.84369L23.125 9.76556H23.3594C24.375 9.60931 25.3906 9.60931 26.4844 9.76556H27.0312L27.3438 9.84369C27.5781 9.92181 27.8125 9.92181 28.0469 9.99994C28.2813 10.0781 28.4375 10.1562 28.6719 10.1562L28.9844 10.2343L29.1406 10.3124H29.2188C29.6094 10.4687 29.9219 10.6249 30.2344 10.8593L30.7031 11.1718L30.8594 11.3281C30.9375 11.3281 30.9375 11.4062 31.0156 11.4843C31.25 11.7187 31.5625 11.9531 31.7969 12.2656C31.875 12.4218 32.0312 12.4999 32.1094 12.6562L32.1875 12.7343L32.2656 12.8906C32.6562 13.3593 32.9688 13.9062 33.2031 14.5312L33.2812 14.6874L33.3594 14.7656C33.4375 14.9218 33.4375 15.0781 33.5156 15.1562C33.5938 15.3906 33.6719 15.7031 33.75 15.9374C33.9062 16.4062 33.9844 16.7968 34.0625 17.2656V18.0468C34.1406 19.4531 33.9062 20.8593 33.4375 22.2656C32.8125 23.4374 32.5 24.5312 32.0312 25.6249C31.5625 26.7187 30.9375 27.7343 30.2344 28.6718C29.5312 29.6093 28.8281 30.5468 28.9062 31.7968C28.9844 32.5781 29.375 33.3593 29.9219 33.9062C30.3906 34.2968 30.8594 34.5312 31.4062 34.7656C32.6562 35.2343 33.8281 35.7812 35.0781 36.3281C36.0156 36.7968 36.9531 37.3437 37.8906 37.8906C38.2812 38.1249 38.6719 38.3593 38.9844 38.6718L39.2188 38.8281L39.2969 38.9062L39.7656 39.2968C40.2344 39.6874 40.7031 40.0781 41.0938 40.5468C41.25 40.7031 41.4062 40.9374 41.5625 41.0937L41.6406 41.1718L41.7969 41.2499Z" />
<path d="M8.4375 41.0156C8.35937 41.0937 8.35937 41.0937 8.4375 41.0156V41.0156Z" />
</g>
<defs>
<clipPath id="clip0_422_1662">
<rect width="50" height="50" fill="white"/>
</clipPath>
</defs>
</svg>
